<svg width="119" height="56" viewBox="0 0 119 56" fill="none" xmlns="http://www.w3.org/2000/svg">
<path d="M13.6875 44H6.11719L6.16406 37.6719H13.6875C15.25 37.6719 16.5703 37.2969 17.6484 36.5469C18.7422 35.7969 19.5703 34.6797 20.1328 33.1953C20.7109 31.6953 21 29.8516 21 27.6641V26.1875C21 24.5469 20.8359 23.1094 20.5078 21.875C20.1953 20.625 19.7266 19.5859 19.1016 18.7578C18.4766 17.9141 17.6953 17.2812 16.7578 16.8594C15.8359 16.4375 14.7734 16.2266 13.5703 16.2266H5.97656V9.875H13.5703C15.8828 9.875 18 10.2734 19.9219 11.0703C21.8594 11.8516 23.5312 12.9766 24.9375 14.4453C26.3594 15.8984 27.4531 17.625 28.2188 19.625C29 21.6094 29.3906 23.8125 29.3906 26.2344V27.6641C29.3906 30.0703 29 32.2734 28.2188 34.2734C27.4531 36.2734 26.3672 38 24.9609 39.4531C23.5547 40.9062 21.8906 42.0312 19.9688 42.8281C18.0625 43.6094 15.9688 44 13.6875 44ZM10.8281 9.875V44H2.60156V9.875H10.8281Z" fill="#85171A"/>
<path d="M48.8578 34.9297C48.8578 34.3984 48.7797 33.9219 48.6234 33.5C48.4672 33.0625 48.1781 32.6562 47.7563 32.2812C47.3344 31.9062 46.725 31.5312 45.9281 31.1562C45.1469 30.7656 44.1156 30.3594 42.8344 29.9375C41.3344 29.4375 39.8891 28.875 38.4984 28.25C37.1078 27.6094 35.8656 26.8672 34.7719 26.0234C33.6781 25.1641 32.8109 24.1641 32.1703 23.0234C31.5297 21.8672 31.2094 20.5234 31.2094 18.9922C31.2094 17.5234 31.5375 16.2031 32.1938 15.0312C32.85 13.8437 33.7641 12.8359 34.9359 12.0078C36.1234 11.1641 37.5141 10.5234 39.1078 10.0859C40.7016 9.63281 42.4438 9.40625 44.3344 9.40625C46.8344 9.40625 49.0375 9.84375 50.9438 10.7188C52.8656 11.5781 54.3656 12.8047 55.4438 14.3984C56.5375 15.9766 57.0844 17.8438 57.0844 20H48.9047C48.9047 19.1406 48.725 18.3828 48.3656 17.7266C48.0219 17.0703 47.4984 16.5547 46.7953 16.1797C46.0922 15.8047 45.2094 15.6172 44.1469 15.6172C43.1156 15.6172 42.2484 15.7734 41.5453 16.0859C40.8422 16.3984 40.3109 16.8203 39.9516 17.3516C39.5922 17.8672 39.4125 18.4375 39.4125 19.0625C39.4125 19.5781 39.5531 20.0469 39.8344 20.4688C40.1313 20.875 40.5453 21.2578 41.0766 21.6172C41.6234 21.9766 42.2797 22.3203 43.0453 22.6484C43.8266 22.9766 44.7016 23.2969 45.6703 23.6094C47.4828 24.1875 49.0922 24.8359 50.4984 25.5547C51.9203 26.2578 53.1156 27.0625 54.0844 27.9688C55.0688 28.8594 55.8109 29.875 56.3109 31.0156C56.8266 32.1562 57.0844 33.4453 57.0844 34.8828C57.0844 36.4141 56.7875 37.7734 56.1938 38.9609C55.6 40.1484 54.7484 41.1562 53.6391 41.9844C52.5297 42.7969 51.2016 43.4141 49.6547 43.8359C48.1078 44.2578 46.3813 44.4688 44.475 44.4688C42.725 44.4688 40.9984 44.25 39.2953 43.8125C37.6078 43.3594 36.0766 42.6719 34.7016 41.75C33.3266 40.8125 32.225 39.6172 31.3969 38.1641C30.5844 36.6953 30.1781 34.9531 30.1781 32.9375H38.4281C38.4281 33.9375 38.5609 34.7812 38.8266 35.4688C39.0922 36.1562 39.4828 36.7109 39.9984 37.1328C40.5141 37.5391 41.1469 37.8359 41.8969 38.0234C42.6469 38.1953 43.5063 38.2812 44.475 38.2812C45.5219 38.2812 46.3656 38.1328 47.0063 37.8359C47.6469 37.5234 48.1156 37.1172 48.4125 36.6172C48.7094 36.1016 48.8578 35.5391 48.8578 34.9297Z" fill="#DC2025"/>
<path d="M67.6688 9.875V44H59.4656V9.875H67.6688Z" fill="#FEBA08"/>
<path d="M71.7227 18V10.8906H73.8223C74.4505 10.8906 75.0072 11.0306 75.4922 11.3105C75.9805 11.5905 76.3581 11.9876 76.625 12.502C76.8919 13.0163 77.0254 13.6055 77.0254 14.2695V14.626C77.0254 15.2998 76.8903 15.8923 76.6201 16.4033C76.3532 16.9144 75.9707 17.3083 75.4727 17.585C74.9779 17.8617 74.4098 18 73.7686 18H71.7227ZM72.958 11.8867V17.0137H73.7637C74.4115 17.0137 74.9079 16.8118 75.2529 16.4082C75.6012 16.0013 75.7786 15.4186 75.7852 14.6602V14.2646C75.7852 13.4932 75.6175 12.904 75.2822 12.4971C74.9469 12.0902 74.4603 11.8867 73.8223 11.8867H72.958ZM84.482 16.2422L85.5758 10.8906H86.8014L85.1607 18H83.9791L82.6266 12.8096L81.2447 18H80.0582L78.4176 10.8906H79.6432L80.7467 16.2324L82.1041 10.8906H83.1393L84.482 16.2422ZM89.6584 18H88.4279V10.8906H89.6584V18ZM91.827 18V10.8906H93.9266C94.5548 10.8906 95.1115 11.0306 95.5965 11.3105C96.0848 11.5905 96.4624 11.9876 96.7293 12.502C96.9962 13.0163 97.1297 13.6055 97.1297 14.2695V14.626C97.1297 15.2998 96.9946 15.8923 96.7244 16.4033C96.4575 16.9144 96.075 17.3083 95.577 17.585C95.0822 17.8617 94.5141 18 93.8729 18H91.827ZM93.0623 11.8867V17.0137H93.868C94.5158 17.0137 95.0122 16.8118 95.3572 16.4082C95.7055 16.0013 95.8829 15.4186 95.8895 14.6602V14.2646C95.8895 13.4932 95.7218 12.904 95.3865 12.4971C95.0512 12.0902 94.5646 11.8867 93.9266 11.8867H93.0623ZM102.882 16.3447H100.128L99.5521 18H98.268L100.954 10.8906H102.062L104.752 18H103.463L102.882 16.3447ZM100.475 15.3486H102.536L101.505 12.3994L100.475 15.3486ZM109.929 16.1689C109.929 15.8564 109.818 15.6156 109.597 15.4463C109.379 15.277 108.983 15.1061 108.41 14.9336C107.837 14.7611 107.382 14.569 107.043 14.3574C106.395 13.9505 106.071 13.4199 106.071 12.7656C106.071 12.1927 106.304 11.7207 106.77 11.3496C107.238 10.9785 107.845 10.793 108.591 10.793C109.086 10.793 109.527 10.8841 109.914 11.0664C110.301 11.2487 110.606 11.5091 110.827 11.8477C111.049 12.1829 111.159 12.5557 111.159 12.9658H109.929C109.929 12.5947 109.812 12.305 109.577 12.0967C109.346 11.8851 109.014 11.7793 108.581 11.7793C108.177 11.7793 107.863 11.8656 107.639 12.0381C107.417 12.2106 107.307 12.4515 107.307 12.7607C107.307 13.0212 107.427 13.2393 107.668 13.415C107.909 13.5876 108.306 13.7568 108.859 13.9229C109.413 14.0856 109.857 14.2728 110.192 14.4844C110.528 14.6927 110.773 14.9336 110.93 15.207C111.086 15.4772 111.164 15.7946 111.164 16.1592C111.164 16.7516 110.936 17.2236 110.48 17.5752C110.028 17.9235 109.413 18.0977 108.635 18.0977C108.12 18.0977 107.647 18.0033 107.214 17.8145C106.784 17.6224 106.449 17.3587 106.208 17.0234C105.97 16.6882 105.852 16.2975 105.852 15.8516H107.087C107.087 16.2552 107.22 16.5677 107.487 16.7891C107.754 17.0104 108.137 17.1211 108.635 17.1211C109.064 17.1211 109.387 17.0348 109.602 16.8623C109.82 16.6865 109.929 16.4554 109.929 16.1689ZM116.878 16.3447H114.124L113.547 18H112.263L114.949 10.8906H116.057L118.748 18H117.459L116.878 16.3447ZM114.47 15.3486H116.531L115.501 12.3994L114.47 15.3486Z" fill="black" fill-opacity="0.6"/>
<path d="M75.4629 28.1689C75.4629 28.0225 75.4401 27.8923 75.3945 27.7783C75.3522 27.6644 75.2757 27.5602 75.165 27.4658C75.0544 27.3714 74.8981 27.2803 74.6963 27.1924C74.4977 27.1012 74.2438 27.0085 73.9346 26.9141C73.596 26.8099 73.2835 26.6943 72.9971 26.5674C72.7139 26.4372 72.4665 26.2874 72.2549 26.1182C72.0433 25.9456 71.8789 25.7487 71.7617 25.5273C71.6445 25.3027 71.5859 25.0439 71.5859 24.751C71.5859 24.4613 71.6462 24.1976 71.7666 23.96C71.8903 23.7223 72.0645 23.5173 72.2891 23.3447C72.5169 23.1689 72.7855 23.0339 73.0947 22.9395C73.404 22.8418 73.7458 22.793 74.1201 22.793C74.6475 22.793 75.1016 22.8906 75.4824 23.0859C75.8665 23.2812 76.1611 23.5433 76.3662 23.8721C76.5745 24.2008 76.6787 24.5638 76.6787 24.9609H75.4629C75.4629 24.7266 75.4124 24.5199 75.3115 24.3408C75.2139 24.1585 75.0641 24.0153 74.8623 23.9111C74.6637 23.807 74.4115 23.7549 74.1055 23.7549C73.8158 23.7549 73.5749 23.7988 73.3828 23.8867C73.1908 23.9746 73.0475 24.0934 72.9531 24.2432C72.8587 24.3929 72.8115 24.5622 72.8115 24.751C72.8115 24.8844 72.8424 25.0065 72.9043 25.1172C72.9661 25.2246 73.0605 25.3255 73.1875 25.4199C73.3145 25.5111 73.474 25.5973 73.666 25.6787C73.8581 25.7601 74.0843 25.8382 74.3447 25.9131C74.7386 26.0303 75.082 26.1605 75.375 26.3037C75.668 26.4437 75.9121 26.6032 76.1074 26.7822C76.3027 26.9613 76.4492 27.1647 76.5469 27.3926C76.6445 27.6172 76.6934 27.8727 76.6934 28.1592C76.6934 28.4587 76.6331 28.7288 76.5127 28.9697C76.3923 29.2074 76.2197 29.4108 75.9951 29.5801C75.7738 29.7461 75.5068 29.8747 75.1943 29.9658C74.8851 30.0537 74.54 30.0977 74.1592 30.0977C73.8174 30.0977 73.4805 30.0521 73.1484 29.9609C72.8197 29.8698 72.5202 29.7314 72.25 29.5459C71.9798 29.3571 71.765 29.1227 71.6055 28.8428C71.446 28.5596 71.3662 28.2292 71.3662 27.8516H72.5918C72.5918 28.0827 72.6309 28.2796 72.709 28.4424C72.7904 28.6051 72.9027 28.7386 73.0459 28.8428C73.1891 28.9437 73.3551 29.0186 73.5439 29.0674C73.736 29.1162 73.9411 29.1406 74.1592 29.1406C74.4456 29.1406 74.6849 29.0999 74.877 29.0186C75.0723 28.9372 75.2188 28.8232 75.3164 28.6768C75.4141 28.5303 75.4629 28.361 75.4629 28.1689ZM80.6959 23.8379L78.5719 30H77.2877L79.9635 22.8906H80.7838L80.6959 23.8379ZM82.4732 30L80.3443 23.8379L80.2516 22.8906H81.0768L83.7623 30H82.4732ZM82.3707 27.3633V28.335H78.5035V27.3633H82.3707ZM85.2063 22.8906H86.3L88.3557 28.374L90.4064 22.8906H91.5002L88.7854 30H87.9162L85.2063 22.8906ZM84.7082 22.8906H85.7482L85.9289 27.6367V30H84.7082V22.8906ZM90.9582 22.8906H92.0031V30H90.7775V27.6367L90.9582 22.8906ZM97.3484 28.1689C97.3484 28.0225 97.3257 27.8923 97.2801 27.7783C97.2378 27.6644 97.1613 27.5602 97.0506 27.4658C96.9399 27.3714 96.7837 27.2803 96.5818 27.1924C96.3833 27.1012 96.1294 27.0085 95.8201 26.9141C95.4816 26.8099 95.1691 26.6943 94.8826 26.5674C94.5994 26.4372 94.352 26.2874 94.1404 26.1182C93.9288 25.9456 93.7645 25.7487 93.6473 25.5273C93.5301 25.3027 93.4715 25.0439 93.4715 24.751C93.4715 24.4613 93.5317 24.1976 93.6521 23.96C93.7758 23.7223 93.95 23.5173 94.1746 23.3447C94.4025 23.1689 94.671 23.0339 94.9803 22.9395C95.2895 22.8418 95.6313 22.793 96.0057 22.793C96.533 22.793 96.9871 22.8906 97.368 23.0859C97.7521 23.2812 98.0467 23.5433 98.2518 23.8721C98.4601 24.2008 98.5643 24.5638 98.5643 24.9609H97.3484C97.3484 24.7266 97.298 24.5199 97.1971 24.3408C97.0994 24.1585 96.9497 24.0153 96.7479 23.9111C96.5493 23.807 96.297 23.7549 95.991 23.7549C95.7013 23.7549 95.4604 23.7988 95.2684 23.8867C95.0763 23.9746 94.9331 24.0934 94.8387 24.2432C94.7443 24.3929 94.6971 24.5622 94.6971 24.751C94.6971 24.8844 94.728 25.0065 94.7898 25.1172C94.8517 25.2246 94.9461 25.3255 95.073 25.4199C95.2 25.5111 95.3595 25.5973 95.5516 25.6787C95.7436 25.7601 95.9699 25.8382 96.2303 25.9131C96.6242 26.0303 96.9676 26.1605 97.2605 26.3037C97.5535 26.4437 97.7977 26.6032 97.993 26.7822C98.1883 26.9613 98.3348 27.1647 98.4324 27.3926C98.5301 27.6172 98.5789 27.8727 98.5789 28.1592C98.5789 28.4587 98.5187 28.7288 98.3982 28.9697C98.2778 29.2074 98.1053 29.4108 97.8807 29.5801C97.6593 29.7461 97.3924 29.8747 97.0799 29.9658C96.7706 30.0537 96.4256 30.0977 96.0447 30.0977C95.7029 30.0977 95.366 30.0521 95.034 29.9609C94.7052 29.8698 94.4057 29.7314 94.1355 29.5459C93.8654 29.3571 93.6505 29.1227 93.491 28.8428C93.3315 28.5596 93.2518 28.2292 93.2518 27.8516H94.4773C94.4773 28.0827 94.5164 28.2796 94.5945 28.4424C94.6759 28.6051 94.7882 28.7386 94.9314 28.8428C95.0747 28.9437 95.2407 29.0186 95.4295 29.0674C95.6216 29.1162 95.8266 29.1406 96.0447 29.1406C96.3312 29.1406 96.5704 29.0999 96.7625 29.0186C96.9578 28.9372 97.1043 28.8232 97.202 28.6768C97.2996 28.5303 97.3484 28.361 97.3484 28.1689ZM102.581 23.8379L100.457 30H99.1732L101.849 22.8906H102.669L102.581 23.8379ZM104.359 30L102.23 23.8379L102.137 22.8906H102.962L105.648 30H104.359ZM104.256 27.3633V28.335H100.389V27.3633H104.256ZM106.594 22.8906H109.108C109.649 22.8906 110.109 22.972 110.49 23.1348C110.871 23.2975 111.162 23.5384 111.364 23.8574C111.569 24.1732 111.672 24.5638 111.672 25.0293C111.672 25.3841 111.607 25.6966 111.477 25.9668C111.346 26.237 111.162 26.4648 110.925 26.6504C110.687 26.8327 110.404 26.9743 110.075 27.0752L109.704 27.2559H107.443L107.434 26.2842H109.128C109.421 26.2842 109.665 26.2321 109.86 26.1279C110.056 26.0238 110.202 25.8822 110.3 25.7031C110.401 25.5208 110.451 25.3158 110.451 25.0879C110.451 24.8405 110.402 24.6257 110.305 24.4434C110.21 24.2578 110.064 24.1162 109.865 24.0186C109.667 23.9176 109.414 23.8672 109.108 23.8672H107.819V30H106.594V22.8906ZM110.651 30L108.981 26.8066L110.266 26.8018L111.96 29.9365V30H110.651ZM115.811 23.8379L113.687 30H112.403L115.079 22.8906H115.899L115.811 23.8379ZM117.588 30L115.46 23.8379L115.367 22.8906H116.192L118.878 30H117.588ZM117.486 27.3633V28.335H113.619V27.3633H117.486Z" fill="#263238" fill-opacity="0.8"/>
<path d="M73.0312 35.8906V43H71.8057V35.8906H73.0312ZM79.6943 35.8906V43H78.4688L75.2803 37.9072V43H74.0547V35.8906H75.2803L78.4785 40.9932V35.8906H79.6943ZM82.7197 43H81.2012L81.2109 42.0283H82.7197C83.1592 42.0283 83.527 41.9323 83.8232 41.7402C84.1227 41.5482 84.3473 41.2731 84.4971 40.915C84.6501 40.557 84.7266 40.1305 84.7266 39.6357V39.25C84.7266 38.8659 84.6826 38.5257 84.5947 38.2295C84.5101 37.9333 84.3831 37.6842 84.2139 37.4824C84.0479 37.2806 83.8428 37.1276 83.5986 37.0234C83.3577 36.9193 83.0794 36.8672 82.7637 36.8672H81.1719V35.8906H82.7637C83.2357 35.8906 83.667 35.9704 84.0576 36.1299C84.4482 36.2861 84.7852 36.5124 85.0684 36.8086C85.3548 37.1048 85.5745 37.4596 85.7275 37.873C85.8805 38.2865 85.957 38.7487 85.957 39.2598V39.6357C85.957 40.1468 85.8805 40.609 85.7275 41.0225C85.5745 41.4359 85.3548 41.7907 85.0684 42.0869C84.7819 42.3799 84.4401 42.6061 84.043 42.7656C83.6491 42.9219 83.208 43 82.7197 43ZM81.8799 35.8906V43H80.6543V35.8906H81.8799ZM92.3564 39.25V39.6406C92.3564 40.1777 92.2865 40.6595 92.1465 41.0859C92.0065 41.5124 91.8063 41.8753 91.5459 42.1748C91.2887 42.4743 90.9795 42.7038 90.6182 42.8633C90.2568 43.0195 89.8564 43.0977 89.417 43.0977C88.9808 43.0977 88.582 43.0195 88.2207 42.8633C87.8626 42.7038 87.5518 42.4743 87.2881 42.1748C87.0244 41.8753 86.8193 41.5124 86.6729 41.0859C86.5296 40.6595 86.458 40.1777 86.458 39.6406V39.25C86.458 38.7129 86.5296 38.2327 86.6729 37.8096C86.8161 37.3831 87.0179 37.0202 87.2783 36.7207C87.542 36.418 87.8529 36.1885 88.2109 36.0322C88.5723 35.8727 88.971 35.793 89.4072 35.793C89.8467 35.793 90.2471 35.8727 90.6084 36.0322C90.9697 36.1885 91.2806 36.418 91.541 36.7207C91.8014 37.0202 92.0016 37.3831 92.1416 37.8096C92.2848 38.2327 92.3564 38.7129 92.3564 39.25ZM91.1309 39.6406V39.2402C91.1309 38.8431 91.0918 38.4932 91.0137 38.1904C90.9388 37.8844 90.8265 37.6289 90.6768 37.4238C90.5303 37.2155 90.3496 37.0592 90.1348 36.9551C89.9199 36.8477 89.6774 36.7939 89.4072 36.7939C89.137 36.7939 88.8962 36.8477 88.6846 36.9551C88.473 37.0592 88.2923 37.2155 88.1426 37.4238C87.9961 37.6289 87.8838 37.8844 87.8057 38.1904C87.7275 38.4932 87.6885 38.8431 87.6885 39.2402V39.6406C87.6885 40.0378 87.7275 40.3893 87.8057 40.6953C87.8838 41.0013 87.9977 41.2601 88.1475 41.4717C88.3005 41.68 88.4827 41.8379 88.6943 41.9453C88.9059 42.0495 89.1468 42.1016 89.417 42.1016C89.6904 42.1016 89.9329 42.0495 90.1445 41.9453C90.3561 41.8379 90.5352 41.68 90.6816 41.4717C90.8281 41.2601 90.9388 41.0013 91.0137 40.6953C91.0918 40.3893 91.1309 40.0378 91.1309 39.6406ZM98.7217 35.8906V43H97.4961L94.3076 37.9072V43H93.082V35.8906H94.3076L97.5059 40.9932V35.8906H98.7217ZM104.335 42.0283V43H100.561V42.0283H104.335ZM100.907 35.8906V43H99.6816V35.8906H100.907ZM103.842 38.8594V39.8164H100.561V38.8594H103.842ZM104.311 35.8906V36.8672H100.561V35.8906H104.311ZM108.576 41.1689C108.576 41.0225 108.553 40.8923 108.508 40.7783C108.465 40.6644 108.389 40.5602 108.278 40.4658C108.168 40.3714 108.011 40.2803 107.81 40.1924C107.611 40.1012 107.357 40.0085 107.048 39.9141C106.709 39.8099 106.397 39.6943 106.11 39.5674C105.827 39.4372 105.58 39.2874 105.368 39.1182C105.157 38.9456 104.992 38.7487 104.875 38.5273C104.758 38.3027 104.699 38.0439 104.699 37.751C104.699 37.4613 104.759 37.1976 104.88 36.96C105.004 36.7223 105.178 36.5173 105.402 36.3447C105.63 36.1689 105.899 36.0339 106.208 35.9395C106.517 35.8418 106.859 35.793 107.233 35.793C107.761 35.793 108.215 35.8906 108.596 36.0859C108.98 36.2812 109.274 36.5433 109.479 36.8721C109.688 37.2008 109.792 37.5638 109.792 37.9609H108.576C108.576 37.7266 108.526 37.5199 108.425 37.3408C108.327 37.1585 108.177 37.0153 107.976 36.9111C107.777 36.807 107.525 36.7549 107.219 36.7549C106.929 36.7549 106.688 36.7988 106.496 36.8867C106.304 36.9746 106.161 37.0934 106.066 37.2432C105.972 37.3929 105.925 37.5622 105.925 37.751C105.925 37.8844 105.956 38.0065 106.018 38.1172C106.079 38.2246 106.174 38.3255 106.301 38.4199C106.428 38.5111 106.587 38.5973 106.779 38.6787C106.971 38.7601 107.198 38.8382 107.458 38.9131C107.852 39.0303 108.195 39.1605 108.488 39.3037C108.781 39.4437 109.025 39.6032 109.221 39.7822C109.416 39.9613 109.562 40.1647 109.66 40.3926C109.758 40.6172 109.807 40.8727 109.807 41.1592C109.807 41.4587 109.746 41.7288 109.626 41.9697C109.506 42.2074 109.333 42.4108 109.108 42.5801C108.887 42.7461 108.62 42.8747 108.308 42.9658C107.998 43.0537 107.653 43.0977 107.272 43.0977C106.931 43.0977 106.594 43.0521 106.262 42.9609C105.933 42.8698 105.633 42.7314 105.363 42.5459C105.093 42.3571 104.878 42.1227 104.719 41.8428C104.559 41.5596 104.479 41.2292 104.479 40.8516H105.705C105.705 41.0827 105.744 41.2796 105.822 41.4424C105.904 41.6051 106.016 41.7386 106.159 41.8428C106.302 41.9437 106.468 42.0186 106.657 42.0674C106.849 42.1162 107.054 42.1406 107.272 42.1406C107.559 42.1406 107.798 42.0999 107.99 42.0186C108.186 41.9372 108.332 41.8232 108.43 41.6768C108.527 41.5303 108.576 41.361 108.576 41.1689ZM111.699 35.8906V43H110.474V35.8906H111.699ZM115.579 36.8379L113.455 43H112.171L114.847 35.8906H115.667L115.579 36.8379ZM117.356 43L115.228 36.8379L115.135 35.8906H115.96L118.646 43H117.356ZM117.254 40.3633V41.335H113.387V40.3633H117.254Z" fill="#263238"/>
</svg>
